<mxfile host="app.diagrams.net" agent="Mozilla/5.0 (X11; Linux x86_64) AppleWebKit/537.36 (KHTML, like Gecko) Chrome/134.0.0.0 Safari/537.36 OPR/119.0.0.0" version="27.0.6">
  <diagram name="Page-1" id="ZO1BKUEPF6YBlkqa_zpW">
    <mxGraphModel dx="1372" dy="760" grid="1" gridSize="10" guides="1" tooltips="1" connect="1" arrows="1" fold="1" page="1" pageScale="1" pageWidth="850" pageHeight="1100" math="0" shadow="0">
      <root>
        <mxCell id="0" />
        <mxCell id="1" parent="0" />
        <mxCell id="yPA68RshhBgGuMtpGtgA-83" value="" style="rounded=0;whiteSpace=wrap;html=1;" vertex="1" parent="1">
          <mxGeometry x="900" y="20" width="160" height="200" as="geometry" />
        </mxCell>
        <mxCell id="yPA68RshhBgGuMtpGtgA-70" value="" style="rounded=0;whiteSpace=wrap;html=1;" vertex="1" parent="1">
          <mxGeometry x="360" y="240" width="860" height="330" as="geometry" />
        </mxCell>
        <mxCell id="yPA68RshhBgGuMtpGtgA-29" value="" style="rounded=0;whiteSpace=wrap;html=1;" vertex="1" parent="1">
          <mxGeometry x="375" y="290" width="250" height="260" as="geometry" />
        </mxCell>
        <mxCell id="yPA68RshhBgGuMtpGtgA-14" value="" style="rounded=0;whiteSpace=wrap;html=1;" vertex="1" parent="1">
          <mxGeometry x="390" y="20" width="250" height="170" as="geometry" />
        </mxCell>
        <mxCell id="yPA68RshhBgGuMtpGtgA-13" value="" style="rounded=0;whiteSpace=wrap;html=1;" vertex="1" parent="1">
          <mxGeometry x="30" y="120" width="250" height="170" as="geometry" />
        </mxCell>
        <mxCell id="yPA68RshhBgGuMtpGtgA-1" value="" style="shape=cylinder3;whiteSpace=wrap;html=1;boundedLbl=1;backgroundOutline=1;size=15;" vertex="1" parent="1">
          <mxGeometry x="50" y="180" width="50" height="70" as="geometry" />
        </mxCell>
        <mxCell id="yPA68RshhBgGuMtpGtgA-2" value="" style="shape=cylinder3;whiteSpace=wrap;html=1;boundedLbl=1;backgroundOutline=1;size=15;" vertex="1" parent="1">
          <mxGeometry x="130" y="180" width="50" height="70" as="geometry" />
        </mxCell>
        <mxCell id="yPA68RshhBgGuMtpGtgA-3" value="" style="shape=cylinder3;whiteSpace=wrap;html=1;boundedLbl=1;backgroundOutline=1;size=15;" vertex="1" parent="1">
          <mxGeometry x="210" y="180" width="50" height="70" as="geometry" />
        </mxCell>
        <mxCell id="yPA68RshhBgGuMtpGtgA-4" value="" style="endArrow=none;html=1;rounded=0;exitX=1;exitY=0.5;exitDx=0;exitDy=0;exitPerimeter=0;entryX=0;entryY=0.5;entryDx=0;entryDy=0;entryPerimeter=0;" edge="1" parent="1" source="yPA68RshhBgGuMtpGtgA-1" target="yPA68RshhBgGuMtpGtgA-2">
          <mxGeometry width="50" height="50" relative="1" as="geometry">
            <mxPoint x="170" y="310" as="sourcePoint" />
            <mxPoint x="400" y="350" as="targetPoint" />
          </mxGeometry>
        </mxCell>
        <mxCell id="yPA68RshhBgGuMtpGtgA-5" value="" style="endArrow=none;html=1;rounded=0;exitX=1;exitY=0.5;exitDx=0;exitDy=0;exitPerimeter=0;entryX=0;entryY=0.5;entryDx=0;entryDy=0;entryPerimeter=0;" edge="1" parent="1" source="yPA68RshhBgGuMtpGtgA-2" target="yPA68RshhBgGuMtpGtgA-3">
          <mxGeometry width="50" height="50" relative="1" as="geometry">
            <mxPoint x="210" y="300" as="sourcePoint" />
            <mxPoint x="240" y="300" as="targetPoint" />
          </mxGeometry>
        </mxCell>
        <mxCell id="yPA68RshhBgGuMtpGtgA-6" value="Konfigurační servery" style="text;html=1;align=center;verticalAlign=middle;resizable=0;points=[];autosize=1;strokeColor=none;fillColor=none;" vertex="1" parent="1">
          <mxGeometry x="90" y="120" width="130" height="30" as="geometry" />
        </mxCell>
        <mxCell id="yPA68RshhBgGuMtpGtgA-7" value="&lt;font style=&quot;font-size: 9px;&quot;&gt;nosql-config-01&lt;/font&gt;" style="text;html=1;align=center;verticalAlign=middle;resizable=0;points=[];autosize=1;strokeColor=none;fillColor=none;" vertex="1" parent="1">
          <mxGeometry x="30" y="250" width="90" height="30" as="geometry" />
        </mxCell>
        <mxCell id="yPA68RshhBgGuMtpGtgA-8" value="&lt;font style=&quot;font-size: 9px;&quot;&gt;nosql-config-02&lt;/font&gt;" style="text;html=1;align=center;verticalAlign=middle;resizable=0;points=[];autosize=1;strokeColor=none;fillColor=none;" vertex="1" parent="1">
          <mxGeometry x="110" y="250" width="90" height="30" as="geometry" />
        </mxCell>
        <mxCell id="yPA68RshhBgGuMtpGtgA-10" value="&lt;font style=&quot;font-size: 9px;&quot;&gt;nosql-config-03&lt;/font&gt;" style="text;html=1;align=center;verticalAlign=middle;resizable=0;points=[];autosize=1;strokeColor=none;fillColor=none;" vertex="1" parent="1">
          <mxGeometry x="190" y="250" width="90" height="30" as="geometry" />
        </mxCell>
        <mxCell id="yPA68RshhBgGuMtpGtgA-11" value="" style="shape=cylinder3;whiteSpace=wrap;html=1;boundedLbl=1;backgroundOutline=1;size=15;" vertex="1" parent="1">
          <mxGeometry x="440" y="50" width="50" height="70" as="geometry" />
        </mxCell>
        <mxCell id="yPA68RshhBgGuMtpGtgA-12" value="" style="shape=cylinder3;whiteSpace=wrap;html=1;boundedLbl=1;backgroundOutline=1;size=15;" vertex="1" parent="1">
          <mxGeometry x="530" y="50" width="50" height="70" as="geometry" />
        </mxCell>
        <mxCell id="yPA68RshhBgGuMtpGtgA-15" value="Routery" style="text;html=1;align=center;verticalAlign=middle;resizable=0;points=[];autosize=1;strokeColor=none;fillColor=none;" vertex="1" parent="1">
          <mxGeometry x="480" y="20" width="70" height="30" as="geometry" />
        </mxCell>
        <mxCell id="yPA68RshhBgGuMtpGtgA-16" value="&lt;font style=&quot;font-size: 9px;&quot;&gt;nosql-router-01&lt;/font&gt;" style="text;html=1;align=center;verticalAlign=middle;resizable=0;points=[];autosize=1;strokeColor=none;fillColor=none;" vertex="1" parent="1">
          <mxGeometry x="425" y="130" width="80" height="30" as="geometry" />
        </mxCell>
        <mxCell id="yPA68RshhBgGuMtpGtgA-17" value="&lt;font style=&quot;font-size: 9px;&quot;&gt;nosql-router-02&lt;/font&gt;" style="text;html=1;align=center;verticalAlign=middle;resizable=0;points=[];autosize=1;strokeColor=none;fillColor=none;" vertex="1" parent="1">
          <mxGeometry x="515" y="130" width="80" height="30" as="geometry" />
        </mxCell>
        <mxCell id="yPA68RshhBgGuMtpGtgA-18" value="" style="curved=1;endArrow=classic;html=1;rounded=0;exitX=0.994;exitY=0.563;exitDx=0;exitDy=0;exitPerimeter=0;entryX=-0.005;entryY=0.459;entryDx=0;entryDy=0;entryPerimeter=0;" edge="1" parent="1">
          <mxGeometry width="50" height="50" relative="1" as="geometry">
            <mxPoint x="280" y="215.71000000000004" as="sourcePoint" />
            <mxPoint x="390.25" y="98.02999999999997" as="targetPoint" />
            <Array as="points">
              <mxPoint x="321.5" y="205" />
              <mxPoint x="361.5" y="120" />
            </Array>
          </mxGeometry>
        </mxCell>
        <mxCell id="yPA68RshhBgGuMtpGtgA-19" value="" style="shape=cylinder3;whiteSpace=wrap;html=1;boundedLbl=1;backgroundOutline=1;size=15;" vertex="1" parent="1">
          <mxGeometry x="467.5" y="340" width="50" height="70" as="geometry" />
        </mxCell>
        <mxCell id="yPA68RshhBgGuMtpGtgA-20" value="" style="shape=cylinder3;whiteSpace=wrap;html=1;boundedLbl=1;backgroundOutline=1;size=15;" vertex="1" parent="1">
          <mxGeometry x="417.5" y="440" width="50" height="70" as="geometry" />
        </mxCell>
        <mxCell id="yPA68RshhBgGuMtpGtgA-21" value="" style="shape=cylinder3;whiteSpace=wrap;html=1;boundedLbl=1;backgroundOutline=1;size=15;" vertex="1" parent="1">
          <mxGeometry x="522.5" y="440" width="50" height="70" as="geometry" />
        </mxCell>
        <mxCell id="yPA68RshhBgGuMtpGtgA-22" value="" style="curved=1;endArrow=classic;html=1;rounded=0;entryX=1;entryY=0;entryDx=0;entryDy=45;entryPerimeter=0;exitX=0.5;exitY=1;exitDx=0;exitDy=0;exitPerimeter=0;" edge="1" parent="1" source="yPA68RshhBgGuMtpGtgA-19" target="yPA68RshhBgGuMtpGtgA-20">
          <mxGeometry width="50" height="50" relative="1" as="geometry">
            <mxPoint x="407.5" y="400" as="sourcePoint" />
            <mxPoint x="487.5" y="320" as="targetPoint" />
            <Array as="points">
              <mxPoint x="497.5" y="450" />
            </Array>
          </mxGeometry>
        </mxCell>
        <mxCell id="yPA68RshhBgGuMtpGtgA-24" value="" style="curved=1;endArrow=classic;html=1;rounded=0;entryX=0;entryY=0;entryDx=0;entryDy=45;entryPerimeter=0;" edge="1" parent="1" target="yPA68RshhBgGuMtpGtgA-21">
          <mxGeometry width="50" height="50" relative="1" as="geometry">
            <mxPoint x="497.5" y="410" as="sourcePoint" />
            <mxPoint x="517.5" y="480" as="targetPoint" />
            <Array as="points">
              <mxPoint x="487.5" y="450" />
            </Array>
          </mxGeometry>
        </mxCell>
        <mxCell id="yPA68RshhBgGuMtpGtgA-26" value="&lt;font style=&quot;font-size: 9px;&quot;&gt;nosql-shard-01-node-01&lt;/font&gt;" style="text;html=1;align=center;verticalAlign=middle;resizable=0;points=[];autosize=1;strokeColor=none;fillColor=none;" vertex="1" parent="1">
          <mxGeometry x="432.5" y="310" width="120" height="30" as="geometry" />
        </mxCell>
        <mxCell id="yPA68RshhBgGuMtpGtgA-27" value="&lt;font style=&quot;font-size: 9px;&quot;&gt;nosql-shard-01-node-02&lt;/font&gt;" style="text;html=1;align=center;verticalAlign=middle;resizable=0;points=[];autosize=1;strokeColor=none;fillColor=none;" vertex="1" parent="1">
          <mxGeometry x="382.5" y="520" width="120" height="30" as="geometry" />
        </mxCell>
        <mxCell id="yPA68RshhBgGuMtpGtgA-28" value="&lt;font style=&quot;font-size: 9px;&quot;&gt;nosql-shard-01-node-03&lt;/font&gt;" style="text;html=1;align=center;verticalAlign=middle;resizable=0;points=[];autosize=1;strokeColor=none;fillColor=none;" vertex="1" parent="1">
          <mxGeometry x="497.5" y="520" width="120" height="30" as="geometry" />
        </mxCell>
        <mxCell id="yPA68RshhBgGuMtpGtgA-30" value="Replika set 1" style="text;html=1;align=center;verticalAlign=middle;resizable=0;points=[];autosize=1;strokeColor=none;fillColor=none;" vertex="1" parent="1">
          <mxGeometry x="447.5" y="290" width="90" height="30" as="geometry" />
        </mxCell>
        <mxCell id="yPA68RshhBgGuMtpGtgA-32" value="&lt;font style=&quot;font-size: 9px;&quot;&gt;mongod&lt;/font&gt;" style="text;html=1;align=center;verticalAlign=middle;resizable=0;points=[];autosize=1;strokeColor=none;fillColor=none;" vertex="1" parent="1">
          <mxGeometry x="462.5" y="370" width="60" height="30" as="geometry" />
        </mxCell>
        <mxCell id="yPA68RshhBgGuMtpGtgA-33" value="&lt;font style=&quot;font-size: 9px;&quot;&gt;mongod&lt;/font&gt;" style="text;html=1;align=center;verticalAlign=middle;resizable=0;points=[];autosize=1;strokeColor=none;fillColor=none;" vertex="1" parent="1">
          <mxGeometry x="412.5" y="470" width="60" height="30" as="geometry" />
        </mxCell>
        <mxCell id="yPA68RshhBgGuMtpGtgA-34" value="&lt;font style=&quot;font-size: 9px;&quot;&gt;mongod&lt;/font&gt;" style="text;html=1;align=center;verticalAlign=middle;resizable=0;points=[];autosize=1;strokeColor=none;fillColor=none;" vertex="1" parent="1">
          <mxGeometry x="517.5" y="470" width="60" height="30" as="geometry" />
        </mxCell>
        <mxCell id="yPA68RshhBgGuMtpGtgA-35" value="&lt;font style=&quot;font-size: 9px;&quot;&gt;mongod&lt;/font&gt;" style="text;html=1;align=center;verticalAlign=middle;resizable=0;points=[];autosize=1;strokeColor=none;fillColor=none;" vertex="1" parent="1">
          <mxGeometry x="125" y="210" width="60" height="30" as="geometry" />
        </mxCell>
        <mxCell id="yPA68RshhBgGuMtpGtgA-36" value="&lt;font style=&quot;font-size: 9px;&quot;&gt;mongod&lt;/font&gt;" style="text;html=1;align=center;verticalAlign=middle;resizable=0;points=[];autosize=1;strokeColor=none;fillColor=none;" vertex="1" parent="1">
          <mxGeometry x="205" y="210" width="60" height="30" as="geometry" />
        </mxCell>
        <mxCell id="yPA68RshhBgGuMtpGtgA-37" value="&lt;font style=&quot;font-size: 9px;&quot;&gt;mongod&lt;/font&gt;" style="text;html=1;align=center;verticalAlign=middle;resizable=0;points=[];autosize=1;strokeColor=none;fillColor=none;" vertex="1" parent="1">
          <mxGeometry x="45" y="210" width="60" height="30" as="geometry" />
        </mxCell>
        <mxCell id="yPA68RshhBgGuMtpGtgA-38" value="&lt;font style=&quot;font-size: 9px;&quot;&gt;mongos&lt;/font&gt;" style="text;html=1;align=center;verticalAlign=middle;resizable=0;points=[];autosize=1;strokeColor=none;fillColor=none;" vertex="1" parent="1">
          <mxGeometry x="435" y="80" width="60" height="30" as="geometry" />
        </mxCell>
        <mxCell id="yPA68RshhBgGuMtpGtgA-39" value="&lt;font style=&quot;font-size: 9px;&quot;&gt;mongos&lt;/font&gt;" style="text;html=1;align=center;verticalAlign=middle;resizable=0;points=[];autosize=1;strokeColor=none;fillColor=none;" vertex="1" parent="1">
          <mxGeometry x="525" y="80" width="60" height="30" as="geometry" />
        </mxCell>
        <mxCell id="yPA68RshhBgGuMtpGtgA-41" value="" style="rounded=0;whiteSpace=wrap;html=1;" vertex="1" parent="1">
          <mxGeometry x="660" y="290" width="250" height="260" as="geometry" />
        </mxCell>
        <mxCell id="yPA68RshhBgGuMtpGtgA-42" value="" style="shape=cylinder3;whiteSpace=wrap;html=1;boundedLbl=1;backgroundOutline=1;size=15;" vertex="1" parent="1">
          <mxGeometry x="752.5" y="340" width="50" height="70" as="geometry" />
        </mxCell>
        <mxCell id="yPA68RshhBgGuMtpGtgA-43" value="" style="shape=cylinder3;whiteSpace=wrap;html=1;boundedLbl=1;backgroundOutline=1;size=15;" vertex="1" parent="1">
          <mxGeometry x="702.5" y="440" width="50" height="70" as="geometry" />
        </mxCell>
        <mxCell id="yPA68RshhBgGuMtpGtgA-44" value="" style="shape=cylinder3;whiteSpace=wrap;html=1;boundedLbl=1;backgroundOutline=1;size=15;" vertex="1" parent="1">
          <mxGeometry x="807.5" y="440" width="50" height="70" as="geometry" />
        </mxCell>
        <mxCell id="yPA68RshhBgGuMtpGtgA-45" value="" style="curved=1;endArrow=classic;html=1;rounded=0;entryX=1;entryY=0;entryDx=0;entryDy=45;entryPerimeter=0;exitX=0.5;exitY=1;exitDx=0;exitDy=0;exitPerimeter=0;" edge="1" parent="1" source="yPA68RshhBgGuMtpGtgA-42" target="yPA68RshhBgGuMtpGtgA-43">
          <mxGeometry width="50" height="50" relative="1" as="geometry">
            <mxPoint x="692.5" y="400" as="sourcePoint" />
            <mxPoint x="772.5" y="320" as="targetPoint" />
            <Array as="points">
              <mxPoint x="782.5" y="450" />
            </Array>
          </mxGeometry>
        </mxCell>
        <mxCell id="yPA68RshhBgGuMtpGtgA-46" value="" style="curved=1;endArrow=classic;html=1;rounded=0;entryX=0;entryY=0;entryDx=0;entryDy=45;entryPerimeter=0;" edge="1" parent="1" target="yPA68RshhBgGuMtpGtgA-44">
          <mxGeometry width="50" height="50" relative="1" as="geometry">
            <mxPoint x="782.5" y="410" as="sourcePoint" />
            <mxPoint x="802.5" y="480" as="targetPoint" />
            <Array as="points">
              <mxPoint x="772.5" y="450" />
            </Array>
          </mxGeometry>
        </mxCell>
        <mxCell id="yPA68RshhBgGuMtpGtgA-47" value="&lt;font style=&quot;font-size: 9px;&quot;&gt;nosql-shard-02-node-01&lt;/font&gt;" style="text;html=1;align=center;verticalAlign=middle;resizable=0;points=[];autosize=1;strokeColor=none;fillColor=none;" vertex="1" parent="1">
          <mxGeometry x="717.5" y="310" width="120" height="30" as="geometry" />
        </mxCell>
        <mxCell id="yPA68RshhBgGuMtpGtgA-48" value="&lt;font style=&quot;font-size: 9px;&quot;&gt;nosql-shard-02-node-02&lt;/font&gt;" style="text;html=1;align=center;verticalAlign=middle;resizable=0;points=[];autosize=1;strokeColor=none;fillColor=none;" vertex="1" parent="1">
          <mxGeometry x="667.5" y="520" width="120" height="30" as="geometry" />
        </mxCell>
        <mxCell id="yPA68RshhBgGuMtpGtgA-49" value="&lt;font style=&quot;font-size: 9px;&quot;&gt;nosql-shard-02-node-03&lt;/font&gt;" style="text;html=1;align=center;verticalAlign=middle;resizable=0;points=[];autosize=1;strokeColor=none;fillColor=none;" vertex="1" parent="1">
          <mxGeometry x="782.5" y="520" width="120" height="30" as="geometry" />
        </mxCell>
        <mxCell id="yPA68RshhBgGuMtpGtgA-50" value="Replika set 2" style="text;html=1;align=center;verticalAlign=middle;resizable=0;points=[];autosize=1;strokeColor=none;fillColor=none;" vertex="1" parent="1">
          <mxGeometry x="732.5" y="290" width="90" height="30" as="geometry" />
        </mxCell>
        <mxCell id="yPA68RshhBgGuMtpGtgA-51" value="&lt;font style=&quot;font-size: 9px;&quot;&gt;mongod&lt;/font&gt;" style="text;html=1;align=center;verticalAlign=middle;resizable=0;points=[];autosize=1;strokeColor=none;fillColor=none;" vertex="1" parent="1">
          <mxGeometry x="747.5" y="370" width="60" height="30" as="geometry" />
        </mxCell>
        <mxCell id="yPA68RshhBgGuMtpGtgA-52" value="&lt;font style=&quot;font-size: 9px;&quot;&gt;mongod&lt;/font&gt;" style="text;html=1;align=center;verticalAlign=middle;resizable=0;points=[];autosize=1;strokeColor=none;fillColor=none;" vertex="1" parent="1">
          <mxGeometry x="697.5" y="470" width="60" height="30" as="geometry" />
        </mxCell>
        <mxCell id="yPA68RshhBgGuMtpGtgA-53" value="&lt;font style=&quot;font-size: 9px;&quot;&gt;mongod&lt;/font&gt;" style="text;html=1;align=center;verticalAlign=middle;resizable=0;points=[];autosize=1;strokeColor=none;fillColor=none;" vertex="1" parent="1">
          <mxGeometry x="802.5" y="470" width="60" height="30" as="geometry" />
        </mxCell>
        <mxCell id="yPA68RshhBgGuMtpGtgA-54" value="" style="rounded=0;whiteSpace=wrap;html=1;" vertex="1" parent="1">
          <mxGeometry x="950" y="290" width="250" height="260" as="geometry" />
        </mxCell>
        <mxCell id="yPA68RshhBgGuMtpGtgA-55" value="" style="shape=cylinder3;whiteSpace=wrap;html=1;boundedLbl=1;backgroundOutline=1;size=15;" vertex="1" parent="1">
          <mxGeometry x="1042.5" y="340" width="50" height="70" as="geometry" />
        </mxCell>
        <mxCell id="yPA68RshhBgGuMtpGtgA-56" value="" style="shape=cylinder3;whiteSpace=wrap;html=1;boundedLbl=1;backgroundOutline=1;size=15;" vertex="1" parent="1">
          <mxGeometry x="992.5" y="440" width="50" height="70" as="geometry" />
        </mxCell>
        <mxCell id="yPA68RshhBgGuMtpGtgA-57" value="" style="shape=cylinder3;whiteSpace=wrap;html=1;boundedLbl=1;backgroundOutline=1;size=15;" vertex="1" parent="1">
          <mxGeometry x="1097.5" y="440" width="50" height="70" as="geometry" />
        </mxCell>
        <mxCell id="yPA68RshhBgGuMtpGtgA-58" value="" style="curved=1;endArrow=classic;html=1;rounded=0;entryX=1;entryY=0;entryDx=0;entryDy=45;entryPerimeter=0;exitX=0.5;exitY=1;exitDx=0;exitDy=0;exitPerimeter=0;" edge="1" parent="1" source="yPA68RshhBgGuMtpGtgA-55" target="yPA68RshhBgGuMtpGtgA-56">
          <mxGeometry width="50" height="50" relative="1" as="geometry">
            <mxPoint x="982.5" y="400" as="sourcePoint" />
            <mxPoint x="1062.5" y="320" as="targetPoint" />
            <Array as="points">
              <mxPoint x="1072.5" y="450" />
            </Array>
          </mxGeometry>
        </mxCell>
        <mxCell id="yPA68RshhBgGuMtpGtgA-59" value="" style="curved=1;endArrow=classic;html=1;rounded=0;entryX=0;entryY=0;entryDx=0;entryDy=45;entryPerimeter=0;" edge="1" parent="1" target="yPA68RshhBgGuMtpGtgA-57">
          <mxGeometry width="50" height="50" relative="1" as="geometry">
            <mxPoint x="1072.5" y="410" as="sourcePoint" />
            <mxPoint x="1092.5" y="480" as="targetPoint" />
            <Array as="points">
              <mxPoint x="1062.5" y="450" />
            </Array>
          </mxGeometry>
        </mxCell>
        <mxCell id="yPA68RshhBgGuMtpGtgA-60" value="&lt;font style=&quot;font-size: 9px;&quot;&gt;nosql-shard-03-node-01&lt;/font&gt;" style="text;html=1;align=center;verticalAlign=middle;resizable=0;points=[];autosize=1;strokeColor=none;fillColor=none;" vertex="1" parent="1">
          <mxGeometry x="1007.5" y="310" width="120" height="30" as="geometry" />
        </mxCell>
        <mxCell id="yPA68RshhBgGuMtpGtgA-61" value="&lt;font style=&quot;font-size: 9px;&quot;&gt;nosql-shard-03-node-02&lt;/font&gt;" style="text;html=1;align=center;verticalAlign=middle;resizable=0;points=[];autosize=1;strokeColor=none;fillColor=none;" vertex="1" parent="1">
          <mxGeometry x="957.5" y="520" width="120" height="30" as="geometry" />
        </mxCell>
        <mxCell id="yPA68RshhBgGuMtpGtgA-62" value="&lt;font style=&quot;font-size: 9px;&quot;&gt;nosql-shard-03-node-03&lt;/font&gt;" style="text;html=1;align=center;verticalAlign=middle;resizable=0;points=[];autosize=1;strokeColor=none;fillColor=none;" vertex="1" parent="1">
          <mxGeometry x="1072.5" y="520" width="120" height="30" as="geometry" />
        </mxCell>
        <mxCell id="yPA68RshhBgGuMtpGtgA-63" value="Replika set 3" style="text;html=1;align=center;verticalAlign=middle;resizable=0;points=[];autosize=1;strokeColor=none;fillColor=none;" vertex="1" parent="1">
          <mxGeometry x="1022.5" y="290" width="90" height="30" as="geometry" />
        </mxCell>
        <mxCell id="yPA68RshhBgGuMtpGtgA-64" value="&lt;font style=&quot;font-size: 9px;&quot;&gt;mongod&lt;/font&gt;" style="text;html=1;align=center;verticalAlign=middle;resizable=0;points=[];autosize=1;strokeColor=none;fillColor=none;" vertex="1" parent="1">
          <mxGeometry x="1037.5" y="370" width="60" height="30" as="geometry" />
        </mxCell>
        <mxCell id="yPA68RshhBgGuMtpGtgA-65" value="&lt;font style=&quot;font-size: 9px;&quot;&gt;mongod&lt;/font&gt;" style="text;html=1;align=center;verticalAlign=middle;resizable=0;points=[];autosize=1;strokeColor=none;fillColor=none;" vertex="1" parent="1">
          <mxGeometry x="987.5" y="470" width="60" height="30" as="geometry" />
        </mxCell>
        <mxCell id="yPA68RshhBgGuMtpGtgA-66" value="&lt;font style=&quot;font-size: 9px;&quot;&gt;mongod&lt;/font&gt;" style="text;html=1;align=center;verticalAlign=middle;resizable=0;points=[];autosize=1;strokeColor=none;fillColor=none;" vertex="1" parent="1">
          <mxGeometry x="1092.5" y="470" width="60" height="30" as="geometry" />
        </mxCell>
        <mxCell id="yPA68RshhBgGuMtpGtgA-67" value="&lt;font style=&quot;font-size: 9px;&quot;&gt;primary&lt;/font&gt;" style="text;html=1;align=center;verticalAlign=middle;resizable=0;points=[];autosize=1;strokeColor=none;fillColor=none;" vertex="1" parent="1">
          <mxGeometry x="802.5" y="350" width="50" height="30" as="geometry" />
        </mxCell>
        <mxCell id="yPA68RshhBgGuMtpGtgA-68" value="&lt;font style=&quot;font-size: 9px;&quot;&gt;primary&lt;/font&gt;" style="text;html=1;align=center;verticalAlign=middle;resizable=0;points=[];autosize=1;strokeColor=none;fillColor=none;" vertex="1" parent="1">
          <mxGeometry x="517.5" y="350" width="50" height="30" as="geometry" />
        </mxCell>
        <mxCell id="yPA68RshhBgGuMtpGtgA-69" value="&lt;font style=&quot;font-size: 9px;&quot;&gt;primary&lt;/font&gt;" style="text;html=1;align=center;verticalAlign=middle;resizable=0;points=[];autosize=1;strokeColor=none;fillColor=none;" vertex="1" parent="1">
          <mxGeometry x="1092.5" y="350" width="50" height="30" as="geometry" />
        </mxCell>
        <mxCell id="yPA68RshhBgGuMtpGtgA-72" value="" style="curved=1;endArrow=classic;html=1;rounded=0;exitX=1.003;exitY=0.659;exitDx=0;exitDy=0;exitPerimeter=0;entryX=0.001;entryY=0.406;entryDx=0;entryDy=0;entryPerimeter=0;" edge="1" parent="1" source="yPA68RshhBgGuMtpGtgA-13" target="yPA68RshhBgGuMtpGtgA-70">
          <mxGeometry width="50" height="50" relative="1" as="geometry">
            <mxPoint x="290" y="270" as="sourcePoint" />
            <mxPoint x="340" y="220" as="targetPoint" />
            <Array as="points">
              <mxPoint x="330" y="230" />
              <mxPoint x="310" y="380" />
            </Array>
          </mxGeometry>
        </mxCell>
        <mxCell id="yPA68RshhBgGuMtpGtgA-74" value="" style="curved=1;endArrow=classic;html=1;rounded=0;exitX=0.46;exitY=1.013;exitDx=0;exitDy=0;exitPerimeter=0;entryX=0.608;entryY=-0.035;entryDx=0;entryDy=0;entryPerimeter=0;" edge="1" parent="1" source="yPA68RshhBgGuMtpGtgA-14" target="yPA68RshhBgGuMtpGtgA-30">
          <mxGeometry width="50" height="50" relative="1" as="geometry">
            <mxPoint x="530" y="240" as="sourcePoint" />
            <mxPoint x="580" y="190" as="targetPoint" />
            <Array as="points">
              <mxPoint x="500" y="220" />
            </Array>
          </mxGeometry>
        </mxCell>
        <mxCell id="yPA68RshhBgGuMtpGtgA-76" value="" style="curved=1;endArrow=classic;html=1;rounded=0;exitX=0.628;exitY=1.008;exitDx=0;exitDy=0;exitPerimeter=0;entryX=0.52;entryY=0.011;entryDx=0;entryDy=0;entryPerimeter=0;" edge="1" parent="1" source="yPA68RshhBgGuMtpGtgA-14" target="yPA68RshhBgGuMtpGtgA-50">
          <mxGeometry width="50" height="50" relative="1" as="geometry">
            <mxPoint x="787.5" y="190" as="sourcePoint" />
            <mxPoint x="784.5" y="287" as="targetPoint" />
            <Array as="points">
              <mxPoint x="620" y="260" />
              <mxPoint x="730" y="250" />
            </Array>
          </mxGeometry>
        </mxCell>
        <mxCell id="yPA68RshhBgGuMtpGtgA-77" value="" style="curved=1;endArrow=classic;html=1;rounded=0;exitX=0.889;exitY=1.008;exitDx=0;exitDy=0;exitPerimeter=0;entryX=0.608;entryY=-0.035;entryDx=0;entryDy=0;entryPerimeter=0;" edge="1" parent="1" source="yPA68RshhBgGuMtpGtgA-14">
          <mxGeometry width="50" height="50" relative="1" as="geometry">
            <mxPoint x="837.5" y="194" as="sourcePoint" />
            <mxPoint x="1075" y="290" as="targetPoint" />
            <Array as="points">
              <mxPoint x="710" y="240" />
              <mxPoint x="800" y="270" />
              <mxPoint x="1060" y="240" />
            </Array>
          </mxGeometry>
        </mxCell>
        <mxCell id="yPA68RshhBgGuMtpGtgA-79" value="" style="verticalLabelPosition=bottom;verticalAlign=top;html=1;shadow=0;dashed=0;strokeWidth=1;shape=mxgraph.android.phone2;strokeColor=#c0c0c0;" vertex="1" parent="1">
          <mxGeometry x="917.5" y="50" width="35.9" height="70" as="geometry" />
        </mxCell>
        <mxCell id="yPA68RshhBgGuMtpGtgA-80" value="" style="verticalLabelPosition=bottom;verticalAlign=top;html=1;shadow=0;dashed=0;strokeWidth=1;shape=mxgraph.android.phone2;strokeColor=#c0c0c0;" vertex="1" parent="1">
          <mxGeometry x="972.5" y="70" width="35.9" height="70" as="geometry" />
        </mxCell>
        <mxCell id="yPA68RshhBgGuMtpGtgA-81" value="" style="verticalLabelPosition=bottom;verticalAlign=top;html=1;shadow=0;dashed=0;strokeWidth=1;shape=mxgraph.android.phone2;strokeColor=#c0c0c0;" vertex="1" parent="1">
          <mxGeometry x="917.5" y="140" width="35.9" height="70" as="geometry" />
        </mxCell>
        <mxCell id="yPA68RshhBgGuMtpGtgA-82" value="" style="verticalLabelPosition=bottom;verticalAlign=top;html=1;shadow=0;dashed=0;strokeWidth=1;shape=mxgraph.android.phone2;strokeColor=#c0c0c0;rotation=90;" vertex="1" parent="1">
          <mxGeometry x="986.6" y="140" width="35.9" height="70" as="geometry" />
        </mxCell>
        <mxCell id="yPA68RshhBgGuMtpGtgA-84" value="Uživatelé" style="text;html=1;align=center;verticalAlign=middle;resizable=0;points=[];autosize=1;strokeColor=none;fillColor=none;" vertex="1" parent="1">
          <mxGeometry x="945" y="20" width="70" height="30" as="geometry" />
        </mxCell>
        <mxCell id="yPA68RshhBgGuMtpGtgA-86" value="" style="curved=1;endArrow=classic;html=1;rounded=0;entryX=0;entryY=0.25;entryDx=0;entryDy=0;" edge="1" parent="1">
          <mxGeometry width="50" height="50" relative="1" as="geometry">
            <mxPoint x="640" y="137" as="sourcePoint" />
            <mxPoint x="900" y="130" as="targetPoint" />
            <Array as="points">
              <mxPoint x="770" y="190" />
            </Array>
          </mxGeometry>
        </mxCell>
        <mxCell id="yPA68RshhBgGuMtpGtgA-87" value="" style="curved=1;endArrow=classic;html=1;rounded=0;entryX=1.012;entryY=0.605;entryDx=0;entryDy=0;entryPerimeter=0;exitX=-0.007;exitY=0.421;exitDx=0;exitDy=0;exitPerimeter=0;" edge="1" parent="1" source="yPA68RshhBgGuMtpGtgA-83">
          <mxGeometry width="50" height="50" relative="1" as="geometry">
            <mxPoint x="895.0799999999999" y="103.15" as="sourcePoint" />
            <mxPoint x="640.0000000000002" y="109.99999999999991" as="targetPoint" />
            <Array as="points">
              <mxPoint x="764.5" y="17.15" />
            </Array>
          </mxGeometry>
        </mxCell>
        <mxCell id="yPA68RshhBgGuMtpGtgA-88" value="&lt;font style=&quot;font-size: 9px;&quot;&gt;Požadavek&lt;/font&gt;" style="text;html=1;align=center;verticalAlign=middle;resizable=0;points=[];autosize=1;strokeColor=none;fillColor=none;" vertex="1" parent="1">
          <mxGeometry x="737.5" y="30" width="70" height="30" as="geometry" />
        </mxCell>
        <mxCell id="yPA68RshhBgGuMtpGtgA-89" value="&lt;font style=&quot;font-size: 9px;&quot;&gt;Odpověď&lt;/font&gt;" style="text;html=1;align=center;verticalAlign=middle;resizable=0;points=[];autosize=1;strokeColor=none;fillColor=none;" vertex="1" parent="1">
          <mxGeometry x="742.5" y="160" width="60" height="30" as="geometry" />
        </mxCell>
      </root>
    </mxGraphModel>
  </diagram>
</mxfile>
